<svg width="237" height="76" fill="none" xmlns="http://www.w3.org/2000/svg"><g clip-path="url(#a)"><path d="M234.1 22.5h-24.8c13.8-6.9 14.9-11.3 14.4-13.70003-1.2-4-5.7-7-10-5.4-5.6 2.1-7.1 10.40003-8.6 16.40003-2-6.1-3.8-13.80003-8.2-17.70003-1.3-1.1-3.1-2.3-5.8-2-4 .4-9.8 5.4-7.5 11.00003 2.3 5.4 9.7 8.8 14.6 11.5h-22.3c-1.6 0-2.9 1.3-2.9 2.9v11.3c0 1.6 1.3 2.9 2.9 2.9h.3V76H234V39.6h.1c1.6 0 2.9-1.3 2.9-2.9V25.4c0-1.6-1.3-2.9-2.9-2.9ZM215.4 5.89997c2.1-.3 5 1.3 5.3 3.2C221.1 11.9 217.3 14.4 215.6 15.5c-2.5 1.7-4.9 2.6-7.3 4.1.9-3.7 2.5-13.00003 7.1-13.70003ZM192.5 15.9c-2.2-1.5-6.5-4.4-6.4-7.80003.1-3.6 5.7-6.6 8.8-3.9 3.9 3.4 5.7 11.10003 7.1 16.60003-3.2-1.5-6.3-2.8-9.5-4.9Zm6 57.1h-19.4V39.6h19.4V73Zm0-36.5H176v-11h22.5v11Zm10.2 0V73h-7.2V25.6h7.2v10.9ZM231 73h-19.4V39.6H231V73Zm2.9-36.5h-22.3v-11h22.3v11Z" fill="#81B3D2"/></g><path d="M156.9 46.7H91.1c-2.3 0-4.1 1.9-4.1 4.3v3.5c0 2.4 1.9 4.2999 4.1 4.2999h.9V59.9c0 5.5 4.3 10.1 9.6 10.1h44.6c5.3 0 9.6-4.5 9.6-10.1v-1.1001h.9c2.3 0 4.1-1.8999 4.1-4.2999V51c.2-2.3-1.7-4.3-3.9-4.3ZM153 59.9c0 3.9-3 7-6.7 7h-44.7c-3.7 0-6.7-3.2-6.7-7v-1.1001H153V59.9Zm5.1-5.4c0 .7-.6 1.2999-1.2 1.2999H91c-.7 0-1.2-.5999-1.2-1.2999V51c0-.7.6-1.3 1.2-1.3h65.8c.7 0 1.2.6 1.2 1.3.1 0 .1 3.5.1 3.5ZM102.6 38.4l5.4 4.1 5.3-4.1 5.3 4.1 5.3-4.1 5.4 4.1 5.3-4.1 5.3 4.1 5.4-4.1 5.3 4.1 6.2-4.7-1.7-2.5-4.5 3.4-5.3-4.1-5.4 4.1-5.3-4.1-5.3 4.1-5.4-4.1-5.3 4.1-5.3-4.1-5.3 4.1-5.4-4.1-5.3 4.1-4.5-3.4-1.7 2.5 6.2 4.7 5.3-4.1ZM95 31.5h60.8c0-.6.1-1.2.1-1.9v-1.2C155.2 12.7 141.2 0 124 0c-17.3 0-31.3 12.7-32 28.5v1.2c0 .6 0 1.3.1 1.9H95v-.1ZM124 3c15.6 0 28.4 11.3 29 25.5H95C95.6 14.4 108.4 3 124 3Z" fill="#81B3D2"/><path d="M124 17.3c1.049 0 1.9-.8954 1.9-2 0-1.1045-.851-2-1.9-2s-1.9.8955-1.9 2c0 1.1046.851 2 1.9 2ZM116.2 12.2c1.049 0 1.9-.8955 1.9-2 0-1.10462-.851-2.00005-1.9-2.00005s-1.9.89543-1.9 2.00005c0 1.1045.851 2 1.9 2ZM131.7 12.2c1.049 0 1.9-.8955 1.9-2 0-1.10462-.851-2.00005-1.9-2.00005s-1.9.89543-1.9 2.00005c0 1.1045.851 2 1.9 2ZM29.7 65h16V41.2h-16V65Zm2.9-20.9001h10.1v18H32.6v-18Z" fill="#81B3D2"/><path d="m72.8 39.3 2.1-2.1-9.9-9.9V0H51.1v13.6L37.5 0 .2 37.2l2.1 2.1 7.8-7.8v37.6h-4V72H70v-2.9h-5.1V31.5l7.9 7.8ZM62 69.1H13V28.5L37.5 4.1 62 28.5v40.6Zm0-44.7-7.9-7.9V2.9H62v21.5Z" fill="#81B3D2"/><path d="M29.9 27.1c0 4.3 3.5 7.7 7.7 7.7 4.3 0 7.8-3.5 7.8-7.7 0-4.3-3.5-7.7-7.8-7.7-4.2 0-7.7 3.4-7.7 7.7Zm7.8-5c2.7 0 5 2.2 5 4.9s-2.2 4.9-5 4.9c-2.7 0-5-2.2-5-4.9s2.2-4.9 5-4.9ZM20.1 41.2h-3v3.8999h3V41.2ZM26 41.2h-3v3.8999h3V41.2ZM20.1 47.2h-3v3.8999h3V47.2ZM26 47.2h-3v3.8999h3V47.2ZM52 41.2h-3v3.8999h3V41.2ZM57.9 41.2h-3v3.8999h3V41.2ZM52 47.2h-3v3.8999h3V47.2ZM57.9 47.2h-3v3.8999h3V47.2Z" fill="#81B3D2"/><defs><clipPath id="a"><path fill="#fff" transform="translate(173)" d="M0 0h64v76H0z"/></clipPath></defs></svg>
