<svg width="290" height="164" fill="none" xmlns="http://www.w3.org/2000/svg"><path fill-rule="evenodd" clip-rule="evenodd" d="M52 18.38 14.44 55.94l2.12 2.12L24 50.62V88h-4v3h65v-3h-5V50.62l7.44 7.44 2.12-2.12L80 46.38V19H66v13.38l-14-14Zm17 17 8 8V22h-8v13.38Zm8 12.24-25-25-25 25V88h50V47.62ZM44 60v24h16V60H44Zm3 21V63h10v18H47ZM31 60h3v4h-3v-4Zm9 0h-3v4h3v-4Zm-9 6h3v4h-3v-4Zm9 0h-3v4h3v-4Zm24-6h3v4h-3v-4Zm9 0h-3v4h3v-4Zm-9 6h3v4h-3v-4Zm9 0h-3v4h3v-4ZM47 46a5 5 0 1 1 10 0 5 5 0 0 1-10 0Zm5-8a8 8 0 1 0 0 16 8 8 0 0 0 0-16Z" fill="#000"/><path d="M178.9 67.7H113.1c-2.3 0-4.1 1.9-4.1 4.3v3.5c0 2.4 1.9 4.3 4.1 4.3h.9v1.1c0 5.5 4.3 10.1 9.6 10.1h44.6c5.3 0 9.6-4.5 9.6-10.1v-1.1h.9c2.3 0 4.1-1.9 4.1-4.3V72a4 4 0 0 0-3.9-4.3ZM175 80.9c0 3.9-3 7-6.7 7h-44.7c-3.7 0-6.7-3.2-6.7-7v-1.1H175v1.1Zm5.1-5.4c0 .7-.6 1.3-1.2 1.3H113c-.7 0-1.2-.6-1.2-1.3V72c0-.7.6-1.3 1.2-1.3h65.8c.7 0 1.2.6 1.2 1.3.1 0 .1 3.5.1 3.5ZM124.6 59.4l5.4 4.1 5.3-4.1 5.3 4.1 5.3-4.1 5.4 4.1 5.3-4.1 5.3 4.1 5.4-4.1 5.3 4.1 6.2-4.7-1.7-2.5-4.5 3.4-5.3-4.1-5.4 4.1-5.3-4.1-5.3 4.1-5.4-4.1-5.3 4.1-5.3-4.1-5.3 4.1-5.4-4.1-5.3 4.1-4.5-3.4-1.7 2.5 6.2 4.7 5.3-4.1ZM117 52.5h60.8c0-.6.1-1.2.1-1.9v-1.2C177.2 33.7 163.2 21 146 21c-17.3 0-31.3 12.7-32 28.5v1.2c0 .6 0 1.3.1 1.9h2.9v-.1ZM146 24c15.6 0 28.4 11.3 29 25.5h-58c.6-14.1 13.4-25.5 29-25.5Z" fill="#000"/><path d="M146 38.3c1.05 0 1.9-.9 1.9-2s-.85-2-1.9-2c-1.05 0-1.9.9-1.9 2s.85 2 1.9 2ZM138.2 33.2c1.05 0 1.9-.9 1.9-2s-.85-2-1.9-2c-1.05 0-1.9.9-1.9 2s.85 2 1.9 2ZM153.7 33.2c1.05 0 1.9-.9 1.9-2s-.85-2-1.9-2c-1.05 0-1.9.9-1.9 2s.85 2 1.9 2ZM269.1 37.5h-24.8c13.8-6.9 14.9-11.3 14.4-13.7-1.2-4-5.7-7-10-5.4-5.6 2.1-7.1 10.4-8.6 16.4-2-6.1-3.8-13.8-8.2-17.7-1.3-1.1-3.1-2.3-5.8-2-4 .4-9.8 5.4-7.5 11 2.3 5.4 9.7 8.8 14.6 11.5h-22.3a2.9 2.9 0 0 0-2.9 2.9v11.3c0 1.6 1.3 2.9 2.9 2.9h.3V91H269V54.6h.1c1.6 0 2.9-1.3 2.9-2.9V40.4c0-1.6-1.3-2.9-2.9-2.9Zm-18.7-16.6c2.1-.3 5 1.3 5.3 3.2.4 2.8-3.4 5.3-5.1 6.4-2.5 1.7-4.9 2.6-7.3 4.1.9-3.7 2.5-13 7.1-13.7Zm-22.9 10c-2.2-1.5-6.5-4.4-6.4-7.8.1-3.6 5.7-6.6 8.8-3.9 3.9 3.4 5.7 11.1 7.1 16.6-3.2-1.5-6.3-2.8-9.5-4.9Zm6 57.1h-19.4V54.6h19.4V88Zm0-36.5H211v-11h22.5v11Zm10.2 0V88h-7.2V40.6h7.2v10.9ZM266 88h-19.4V54.6H266V88Zm2.9-36.5h-22.3v-11h22.3v11ZM67.75 116c.3 0 .5-.2.5-.5s-.2-.5-.5-.5-.5.2-.5.5.2.5.5.5Z" fill="#000"/><path d="M77 108h-2v-2h-1v2h-8v-2h-1v2h-2c-.6 0-1 .4-1 1v11c0 .5.4 1 1 1h14c.5 0 1-.5 1-1v-11c0-.6-.5-1-1-1Zm0 12H63v-7h14v7Zm-14-8v-3h2v2h1v-2h8v2h1v-2h2v3H63Z" fill="#000"/><path d="M70 116c.3 0 .5-.2.5-.5s-.2-.5-.5-.5-.5.2-.5.5.2.5.5.5ZM72.25 116c.3 0 .5-.2.5-.5s-.2-.5-.5-.5-.5.2-.5.5.2.5.5.5ZM67.75 117c-.3 0-.5.2-.5.5s.2.5.5.5.5-.2.5-.5-.2-.5-.5-.5ZM65.5 116c.3 0 .5-.2.5-.5s-.2-.5-.5-.5-.5.2-.5.5.2.5.5.5ZM65.5 117c-.3 0-.5.2-.5.5s.2.5.5.5.5-.2.5-.5-.2-.5-.5-.5ZM70 117c-.3 0-.5.2-.5.5s.2.5.5.5.5-.2.5-.5-.2-.5-.5-.5ZM72.25 117c-.3 0-.5.2-.5.5s.2.5.5.5.5-.2.5-.5-.2-.5-.5-.5ZM74.5 116c.3 0 .5-.2.5-.5s-.2-.5-.5-.5-.5.2-.5.5.2.5.5.5ZM74.5 117c-.3 0-.5.2-.5.5s.2.5.5.5.5-.2.5-.5-.2-.5-.5-.5ZM152.3 108.3h-14.7c-.3 0-.6.2-.6.5s.3.6.6.6h1.7v12c0 .3.3.6.6.6h10.2c.3 0 .6-.3.6-.6v-12h1.7c.3 0 .6-.3.6-.6s-.4-.5-.7-.5Zm-2.8 12.5h-9.1v-11.4h9.1v11.4ZM143.2 107.2h3.4c.3 0 .6-.3.6-.6s-.2-.6-.5-.6h-3.5c-.3 0-.5.3-.5.6s.2.6.5.6Z" fill="#000"/><path d="M143.2 118c.3 0 .6-.3.6-.6v-5.7c0-.3-.3-.6-.6-.6s-.6.3-.6.6v5.7c.1.3.3.6.6.6ZM146.7 118c.3 0 .6-.3.6-.6v-5.7c0-.3-.3-.6-.6-.6s-.6.4-.6.6v5.7c0 .3.2.6.6.6Z" fill="#000"/><path fill-rule="evenodd" clip-rule="evenodd" d="M189.22 111.34c.3-.29.77-.29 1.06 0l4.72 4.72 4.72-4.72a.75.75 0 1 1 1.06 1.06l-5.25 5.25c-.3.3-.77.3-1.06 0l-5.25-5.25a.75.75 0 0 1 0-1.06Z" fill="#000"/><path d="M119.9 123a.9.9 0 0 1-.8-.4c-5.4-6.1-6.7-7.5-7-7.9a5.4 5.4 0 0 1 4.4-8.7c1.3 0 2.5.5 3.5 1.3a5.46 5.46 0 0 1 9 4.1c0 1.3-.5 2.5-1.3 3.4l-7 7.9c-.2.2-.4.3-.8.3Zm-6-9.5c.3.4 3.5 4 6.1 6.9l6.2-7c.5-.5.7-1.2.7-2 0-1.8-1.5-3.3-3.3-3.3-1 0-2 .5-2.7 1.3-.3.3-.6.4-.9.4-.3 0-.6-.2-.8-.4-.7-.8-1.7-1.3-2.7-1.3-1.8 0-3.3 1.5-3.3 3.3-.1.9.3 1.6.7 2.1-.1 0-.1 0 0 0ZM220 107l-6 5.8v6.2h12v-6.2l-6-5.8Zm5 11h-10v-4.8l5-4.8 5 4.8v4.8Z" fill="#000"/><path d="M218 117h1v-2.5h2v2.5h1v-3.5h-4v3.5Z" fill="#000"/><path fill-rule="evenodd" clip-rule="evenodd" d="M269 108h2v2h-2v-2Zm2 12h-2v-9h2v9Z" fill="#000"/><path d="M38 113v2h14v-2H38ZM177 108.3l-1.3-1.3-5.7 5.7-5.7-5.7-1.3 1.3 5.7 5.7-5.7 5.7 1.3 1.3 5.7-5.7 5.7 5.7 1.3-1.3-5.7-5.7 5.7-5.7ZM27 113h-6v-6h-2v6h-6v2h6v6h2v-6h6v-2ZM104.5 122l-3.7-3.67c1-1.3 1.7-2.98 1.7-4.87a8 8 0 0 0-8-7.96c-4.4 0-8 3.68-8 8.06a8 8 0 0 0 12.9 6.26l3.7 3.68 1.4-1.5Zm-10-2.48a6 6 0 0 1-6-5.96 6 6 0 0 1 12 0 6 6 0 0 1-6 5.96ZM245 105l2.1 6.5h6.9l-5.6 4 2.2 6.5-5.6-4-5.6 4 2.2-6.5-5.6-4h6.9l2.1-6.5ZM14 137h-2v2h2v-2ZM28 137H16v2h12v-2ZM14 141h-2v2h2v-2ZM28 141H16v2h12v-2ZM14 145h-2v2h2v-2ZM28 145H16v2h12v-2ZM14 149h-2v2h2v-2ZM28 149H16v2h12v-2ZM53 149H37v2h16v-2ZM51 139v6H39v-6h12Zm2-2H37v10h16v-10ZM66 137h-4v6h4v-6ZM78 137h-4v6h4v-6ZM72 137h-4v6h4v-6ZM66 145h-4v6h4v-6ZM78 145h-4v6h4v-6ZM72 145h-4v6h4v-6ZM125 139l-6.5 7.4-3.4-3.9-1.1 1.2 4.5 5.2 7.7-8.6-1.2-1.3ZM90 144a5 5 0 1 1 10 0 5 5 0 0 1-10 0Z" fill="#000"/><path d="M147 135c-2.2 0-4 1.8-4 4v2h-3v4h3v8h4v-8h3v-4h-3v-2h3v-4h-3ZM172.6 136.2c1.8-.5 3.2.3 3.8 1.2.7-.2 1.4-.5 2.1-.7 0 .9-.6 1.5-.9 1.8.7.1 1.4-.6 1.4-.6-.2 1-1.1 1.8-1.7 2-.2 6.8-3.3 11.2-10.6 11.1h-.5c-.4 0-4.4-.5-5.2-1.9 2.4.2 4.1-.4 5-1.2-1-.3-2.9-.4-3.2-2.9.4.1.6.2 1.3.1-1.3-.8-2.7-1.6-2.6-3.8.3.3 1.1.5 1.4.5-.8-.2-2.1-3.3-1-4.9 1.9 1.9 4 3.6 7.6 3.8.2-2.4 1.2-3.9 3.1-4.5Z" fill="#83B3D3"/><path fill-rule="evenodd" clip-rule="evenodd" d="M202.81 137.42c.87.23 1.54.9 1.77 1.77.42 1.56.42 4.81.42 4.81s0 3.25-.42 4.81a2.5 2.5 0 0 1-1.77 1.77c-1.56.42-7.81.42-7.81.42s-6.25 0-7.81-.42a2.5 2.5 0 0 1-1.77-1.77C185 147.25 185 144 185 144s0-3.25.42-4.81a2.5 2.5 0 0 1 1.77-1.77c1.56-.42 7.81-.42 7.81-.42s6.25 0 7.81.42ZM198.2 144l-5.2 3v-6l5.2 3Z" fill="#83B3D3"/></svg>